<?xml version="1.0" standalone="no"?>
<!DOCTYPE svg PUBLIC "-//W3C//DTD SVG 20010904//EN"
 "http://www.w3.org/TR/2001/REC-SVG-20010904/DTD/svg10.dtd">
<svg version="1.0" xmlns="http://www.w3.org/2000/svg"
 width="1024.000000pt" height="1536.000000pt" viewBox="0 0 1024.000000 1536.000000"
 preserveAspectRatio="xMidYMid meet">

<g transform="translate(0.000000,1536.000000) scale(0.100000,-0.100000)"
fill="#000000" stroke="none">
<path d="M5189 13554 c-328 -293 -937 -880 -1099 -1059 -231 -254 -586 -779
-755 -1115 -49 -98 -61 -114 -147 -192 -140 -127 -837 -735 -1434 -1249 -538
-464 -764 -662 -761 -666 2 -2 296 66 767 177 162 39 306 73 320 76 19 4 6
-14 -61 -83 -177 -181 -551 -594 -815 -898 -377 -435 -1148 -1375 -1137 -1386
5 -4 64 -30 133 -57 69 -28 305 -125 525 -215 220 -90 402 -163 405 -161 3 1
66 102 140 223 74 121 136 219 137 217 11 -10 -115 -588 -233 -1069 -66 -273
-75 -320 -63 -331 41 -40 1789 -1200 1796 -1193 2 3 -23 177 -56 388 -59 376
-126 829 -137 919 -3 25 -7 56 -10 70 -4 24 -4 25 11 5 30 -38 163 -281 297
-545 215 -423 433 -802 608 -1059 l65 -96 535 -270 c855 -431 1164 -608 1496
-855 175 -131 319 -255 501 -433 l152 -149 10 38 c16 60 58 276 85 440 76 451
125 904 175 1592 10 139 21 255 24 258 5 5 220 -117 765 -434 94 -55 172 -98
172 -94 0 3 -48 119 -106 257 -168 395 -395 930 -614 1445 -111 261 -206 484
-210 495 -7 17 18 49 147 190 86 94 183 199 216 233 l60 64 771 -31 c424 -18
915 -38 1091 -46 l320 -14 62 62 c34 34 251 260 482 502 l421 440 -3 378 -2
378 -765 418 c-421 229 -841 461 -935 515 l-170 97 -129 207 c-95 152 -552
872 -572 900 -2 3 -1379 603 -1717 748 -144 61 -212 95 -218 109 -5 11 -56
279 -114 595 -57 316 -140 763 -183 993 l-78 418 -165 -147z m-105 -1514 c9
-223 19 -459 22 -525 l6 -120 -69 -39 c-413 -235 -826 -472 -856 -493 -22 -13
-40 -23 -42 -21 -5 5 70 294 109 420 154 492 423 1019 730 1427 l71 95 7 -170
c4 -93 14 -351 22 -574z m2141 -1992 c108 -111 189 -204 382 -440 74 -91 16
-58 833 -470 333 -168 703 -356 823 -418 l219 -113 -100 -101 -101 -101 57
-60 c142 -150 362 -395 362 -403 0 -5 -126 -132 -280 -282 l-280 -272 -58 10
c-31 6 -221 40 -422 76 -201 35 -538 95 -750 131 -212 36 -522 91 -689 121
l-304 55 -56 -24 c-31 -14 -207 -87 -391 -162 -394 -160 -849 -354 -868 -369
-31 -23 -347 -680 -381 -790 -65 -209 -71 -630 -16 -961 18 -105 65 -294 95
-379 11 -33 19 -60 17 -62 -1 -1 -40 42 -86 97 -206 243 -360 459 -533 749
-109 183 -258 456 -302 553 -14 31 -37 81 -51 111 l-24 54 201 274 c203 276
281 375 417 528 153 171 504 540 670 705 148 147 198 203 161 180 -11 -7
-1794 -494 -1797 -491 -3 3 275 398 472 671 197 273 585 793 730 980 214 273
197 255 225 249 14 -3 216 -64 450 -136 234 -72 490 -151 570 -175 l145 -45
165 17 c91 9 317 34 504 56 186 21 346 39 355 39 9 0 -139 62 -329 139 -412
165 -513 210 -775 349 -110 58 -245 127 -300 154 l-100 48 110 1 c61 0 254 7
430 13 176 7 356 14 400 14 l79 2 121 -122z"/>
<path d="M6714 12524 c-390 -333 -718 -614 -728 -625 -19 -18 -6 -25 599 -324
340 -168 619 -304 621 -303 1 2 41 332 88 733 48 402 97 818 110 925 13 107
23 196 21 198 -1 2 -322 -270 -711 -604z"/>
</g>
</svg>
