<?xml version="1.0" standalone="no"?>
<!DOCTYPE svg PUBLIC "-//W3C//DTD SVG 20010904//EN"
 "http://www.w3.org/TR/2001/REC-SVG-20010904/DTD/svg10.dtd">
<svg version="1.0" xmlns="http://www.w3.org/2000/svg"
 width="1024.000000pt" height="1024.000000pt" viewBox="0 0 1024.000000 1024.000000"
 preserveAspectRatio="xMidYMid meet">

<g transform="translate(0.000000,1024.000000) scale(0.100000,-0.100000)"
fill="#000000" stroke="none">
<path d="M4524 9428 l-19 -23 23 19 c21 18 27 26 19 26 -2 0 -12 -10 -23 -22z"/>
<path d="M4570 9445 c0 -5 5 -17 10 -25 5 -8 10 -10 10 -5 0 6 -5 17 -10 25
-5 8 -10 11 -10 5z"/>
<path d="M4464 9378 l-29 -33 33 29 c30 28 37 36 29 36 -2 0 -16 -15 -33 -32z"/>
<path d="M4601 9375 c0 -5 8 -26 19 -45 11 -19 19 -30 19 -25 0 6 -8 26 -19
45 -11 19 -19 31 -19 25z"/>
<path d="M4409 9333 c-13 -16 -12 -17 4 -4 9 7 17 15 17 17 0 8 -8 3 -21 -13z"/>
<path d="M4660 9245 c0 -5 5 -17 10 -25 5 -8 10 -10 10 -5 0 6 -5 17 -10 25
-5 8 -10 11 -10 5z"/>
<path d="M4717 9125 c9 -19 18 -33 21 -31 4 5 -26 66 -33 66 -3 0 3 -16 12
-35z"/>
<path d="M4209 9123 c-13 -16 -12 -17 4 -4 9 7 17 15 17 17 0 8 -8 3 -21 -13z"/>
<path d="M4149 9053 c-32 -36 -53 -63 -47 -63 2 0 21 20 41 45 42 49 45 61 6
18z"/>
<path d="M4741 9075 c0 -5 11 -30 24 -55 13 -25 24 -40 24 -35 0 6 -11 30 -24
55 -13 25 -24 41 -24 35z"/>
<path d="M4382 8953 c-461 -554 -693 -1088 -743 -1712 l-12 -148 -81 -33
c-131 -53 -381 -183 -521 -271 -237 -148 -499 -356 -784 -619 -170 -158 -227
-208 -216 -190 5 8 19 32 32 53 13 20 21 37 19 37 -8 0 -66 -88 -66 -99 0 -27
33 -4 125 87 124 121 168 159 200 174 33 15 42 5 21 -26 -19 -29 -17 -53 7
-89 11 -16 15 -36 11 -54 -5 -26 -2 -30 36 -47 48 -21 52 -12 -55 -125 -49
-53 -42 -48 35 24 280 261 599 465 930 595 121 47 126 58 -70 -145 -530 -548
-787 -950 -975 -1523 -20 -62 -35 -115 -33 -117 3 -3 12 20 22 50 9 30 26 75
37 101 l21 46 29 -31 c16 -18 29 -40 29 -50 0 -20 63 -56 80 -46 6 3 23 -3 39
-14 30 -22 66 -27 75 -13 15 25 94 -15 120 -59 11 -19 25 -29 40 -29 12 0 26
-3 30 -7 4 -5 13 -8 19 -8 9 0 11 -31 10 -105 l-2 -105 14 108 c30 242 89 445
186 647 152 316 349 534 595 660 244 125 496 188 779 196 172 4 171 6 20 -43
-44 -14 -140 -54 -213 -89 -538 -256 -947 -730 -1141 -1319 -27 -82 -48 -152
-46 -154 2 -2 16 12 31 30 105 130 360 356 543 478 88 59 261 161 274 161 4 0
-5 -19 -20 -42 -69 -110 -140 -305 -173 -473 -82 -428 20 -909 274 -1293 65
-98 226 -305 232 -299 2 2 -3 37 -12 78 -20 99 -30 402 -15 499 18 120 43 230
52 230 5 0 9 -6 9 -14 0 -30 103 -257 166 -367 193 -337 413 -609 813 -1010
234 -233 510 -493 518 -486 10 11 -62 226 -155 464 -138 351 -177 490 -201
705 -14 122 -14 218 -1 218 6 0 10 -6 10 -14 0 -30 113 -240 193 -359 101
-150 181 -250 297 -371 81 -85 241 -229 247 -222 2 1 -17 63 -41 137 -62 189
-77 264 -83 424 -6 163 9 246 59 335 35 62 87 130 100 130 4 0 8 -26 8 -57 0
-106 40 -238 108 -358 38 -68 153 -226 180 -246 9 -8 1 6 -19 31 -56 71 -99
137 -111 171 -9 26 -8 32 11 45 11 8 21 26 21 39 0 47 95 125 152 125 21 0 95
39 143 76 18 13 58 33 91 44 32 11 71 29 86 40 23 17 45 20 160 22 l133 2
-123 6 -122 5 55 44 c87 70 88 61 -20 141 -315 234 -649 389 -952 440 -141 24
-347 26 -460 5 -217 -41 -409 -143 -575 -306 -59 -58 -59 -58 -53 -26 46 217
192 432 380 561 l40 28 -65 -7 c-93 -10 -272 -57 -381 -100 -112 -44 -197 -90
-301 -161 -43 -29 -78 -49 -78 -44 0 6 14 54 31 107 70 221 184 408 349 576
59 59 104 107 102 107 -31 0 -240 -37 -313 -56 -201 -50 -451 -157 -603 -258
-38 -25 -71 -45 -72 -43 -6 5 42 177 69 247 89 236 269 489 432 605 120 86
261 140 398 152 37 3 67 9 67 13 0 15 -325 101 -435 115 -27 3 -63 9 -78 12
l-29 5 37 25 c59 40 231 119 333 153 199 67 357 91 587 91 l169 0 -59 36 c-78
47 -262 134 -345 163 -36 13 -69 27 -73 31 -12 9 173 130 296 194 53 28 97 52
97 55 -1 12 -227 169 -344 239 l-129 76 64 12 c179 33 561 35 769 3 36 -5 69
-10 74 -10 5 0 -37 47 -92 104 -55 58 -106 114 -112 126 -11 20 -10 21 27 14
65 -11 263 -74 353 -111 367 -150 596 -404 705 -778 14 -48 24 -90 21 -92 -5
-5 -122 39 -181 70 -28 14 -83 54 -123 90 -128 115 -251 184 -408 229 -67 19
-104 22 -239 23 -88 0 -173 -4 -189 -8 l-28 -8 57 -34 c91 -55 152 -112 166
-153 6 -20 27 -68 46 -107 104 -209 243 -295 458 -282 52 3 95 3 95 1 0 -2
-28 -25 -62 -50 -67 -49 -174 -111 -273 -157 l-60 -28 95 5 c207 13 449 99
644 230 l69 46 86 -37 c372 -158 955 -463 1086 -568 l27 -21 -49 -30 c-66 -41
-87 -86 -80 -171 7 -91 43 -158 138 -252 43 -44 79 -85 79 -91 0 -6 -11 -32
-24 -58 -79 -155 -249 -242 -477 -242 -162 0 -238 34 -467 208 -284 216 -536
362 -696 402 -207 52 -402 3 -559 -141 -61 -55 -155 -164 -191 -221 l-17 -26
68 -22 c124 -41 387 -148 534 -218 168 -80 348 -180 597 -331 193 -117 296
-161 425 -181 184 -30 416 21 560 122 16 11 31 17 34 14 4 -4 -3 -30 -15 -58
-12 -28 -20 -54 -17 -56 7 -7 43 81 51 124 4 23 28 61 65 106 33 39 59 73 59
77 0 3 28 25 63 48 42 28 77 43 110 47 83 10 186 75 287 182 45 47 40 44 -28
-19 -86 -79 -220 -157 -270 -157 -22 0 -11 15 90 118 108 110 218 256 218 289
0 7 35 51 79 97 82 87 141 187 141 238 0 19 -13 43 -41 73 -33 36 -82 65 -233
142 -395 199 -775 432 -1097 674 -257 193 -288 238 -299 435 -7 117 -10 128
-41 180 -44 72 -161 206 -281 320 -360 343 -931 685 -1432 857 l-119 40 -77
161 c-42 89 -127 276 -188 416 -61 140 -161 370 -222 510 -62 140 -124 283
-138 317 -15 35 -30 63 -34 63 -3 0 -47 -48 -96 -107z m204 -848 c37 -99 104
-288 149 -420 46 -132 92 -265 103 -296 l20 -57 -96 -48 c-54 -26 -149 -69
-212 -95 l-115 -48 -53 52 c-142 138 -232 344 -232 530 l0 79 83 -78 c46 -44
121 -100 165 -126 45 -26 82 -46 82 -44 0 2 -25 55 -54 117 -88 182 -109 267
-110 429 0 126 2 141 30 222 17 47 43 107 59 134 l28 47 44 -109 c24 -60 73
-190 109 -289z m1491 -2109 c75 -41 234 -153 248 -175 8 -14 -7 -20 -58 -27
-108 -15 -203 28 -250 114 -27 50 -46 132 -31 132 5 0 46 -20 91 -44z m2130
-1322 c13 -8 23 -20 23 -27 0 -14 -48 -64 -53 -56 -23 34 -77 120 -77 123 0 8
82 -23 107 -40z m-1796 -120 c45 -8 99 -24 120 -34 20 -11 74 -60 119 -109 69
-76 85 -89 100 -81 26 14 73 12 92 -2 19 -16 135 -315 125 -324 -1 -1 -76 41
-167 93 -182 105 -418 226 -579 297 -58 26 -107 49 -110 52 -4 3 44 4 105 2
l111 -3 -48 46 c-65 60 -65 79 0 79 27 0 86 -7 132 -16z m-1261 -353 c0 -12
-74 -71 -89 -71 -7 0 -10 11 -8 28 3 20 12 30 38 39 42 15 59 16 59 4z m2182
-102 c84 -17 81 -13 54 -66 -29 -58 -78 -107 -128 -127 -38 -16 -90 -21 -101
-10 -16 17 89 214 114 214 4 0 32 -5 61 -11z m417 -65 c-30 -36 -195 -142
-205 -131 -3 3 16 67 41 135 3 8 31 12 91 12 78 0 85 -2 73 -16z m-2173 -1900
c29 -8 93 -134 68 -134 -24 0 -124 105 -124 131 0 10 25 12 56 3z"/>
<path d="M4801 8945 c0 -5 6 -21 14 -35 8 -14 14 -20 14 -15 0 6 -6 21 -14 35
-8 14 -14 21 -14 15z"/>
<path d="M4009 8873 c-13 -16 -12 -17 4 -4 9 7 17 15 17 17 0 8 -8 3 -21 -13z"/>
<path d="M4881 8775 c0 -5 11 -30 24 -55 13 -25 24 -40 24 -35 0 6 -11 30 -24
55 -13 25 -24 41 -24 35z"/>
<path d="M3890 8700 c-6 -11 -8 -20 -6 -20 3 0 10 9 16 20 6 11 8 20 6 20 -3
0 -10 -9 -16 -20z"/>
<path d="M4940 8645 c0 -5 5 -17 10 -25 5 -8 10 -10 10 -5 0 6 -5 17 -10 25
-5 8 -10 11 -10 5z"/>
<path d="M3840 8620 c-6 -11 -8 -20 -6 -20 3 0 10 9 16 20 6 11 8 20 6 20 -3
0 -10 -9 -16 -20z"/>
<path d="M4966 8587 c3 -10 9 -15 12 -12 3 3 0 11 -7 18 -10 9 -11 8 -5 -6z"/>
<path d="M3719 8399 c-33 -67 -59 -123 -57 -125 2 -2 32 53 66 121 34 69 60
125 57 125 -3 0 -32 -54 -66 -121z"/>
<path d="M5021 8475 c0 -5 13 -35 29 -65 16 -30 29 -50 29 -45 0 6 -13 35 -29
65 -16 30 -29 51 -29 45z"/>
<path d="M5091 8325 c0 -5 8 -26 19 -45 11 -19 19 -30 19 -25 0 6 -8 26 -19
45 -11 19 -19 31 -19 25z"/>
<path d="M3626 8199 c-15 -34 -25 -63 -23 -65 2 -2 16 24 30 58 15 34 25 63
23 65 -2 2 -15 -24 -30 -58z"/>
<path d="M5162 8175 c12 -24 23 -43 26 -41 4 5 -36 86 -43 86 -3 0 5 -20 17
-45z"/>
<path d="M5191 8115 c0 -5 11 -30 24 -55 13 -25 24 -40 24 -35 0 6 -11 30 -24
55 -13 25 -24 41 -24 35z"/>
<path d="M3570 8060 c-7 -17 -10 -33 -8 -36 3 -3 11 9 17 27 14 42 7 49 -9 9z"/>
<path d="M3531 7939 c-7 -22 -11 -43 -8 -45 2 -2 9 14 16 37 7 22 11 43 8 45
-2 2 -9 -14 -16 -37z"/>
<path d="M3511 7864 c0 -11 3 -14 6 -6 3 7 2 16 -1 19 -3 4 -6 -2 -5 -13z"/>
<path d="M5320 7848 c0 -17 24 -57 38 -63 14 -5 14 -4 0 12 -8 10 -20 27 -26
38 -6 11 -12 17 -12 13z"/>
<path d="M3480 7760 c-7 -28 -10 -53 -8 -55 3 -3 10 18 16 47 7 28 11 53 8 55
-2 2 -9 -19 -16 -47z"/>
<path d="M5450 7750 c8 -5 20 -10 25 -10 6 0 3 5 -5 10 -8 5 -19 10 -25 10 -5
0 -3 -5 5 -10z"/>
<path d="M5510 7725 c14 -8 30 -14 35 -14 6 0 -1 6 -15 14 -14 8 -29 14 -35
14 -5 0 1 -6 15 -14z"/>
<path d="M5580 7697 c8 -8 120 -56 120 -52 0 3 -17 13 -37 24 -40 19 -92 37
-83 28z"/>
<path d="M3462 7670 c0 -14 2 -19 5 -12 2 6 2 18 0 25 -3 6 -5 1 -5 -13z"/>
<path d="M3452 7620 c0 -14 2 -19 5 -12 2 6 2 18 0 25 -3 6 -5 1 -5 -13z"/>
<path d="M5751 7616 c10 -9 69 -36 69 -32 0 6 -55 36 -66 36 -4 0 -5 -2 -3 -4z"/>
<path d="M3437 7555 c-3 -22 -9 -74 -12 -115 -4 -71 -4 -70 10 25 14 96 16
172 2 90z"/>
<path d="M5920 7526 c0 -3 9 -10 20 -16 11 -6 20 -8 20 -6 0 3 -9 10 -20 16
-11 6 -20 8 -20 6z"/>
<path d="M6030 7456 c0 -3 9 -10 20 -16 11 -6 20 -8 20 -6 0 3 -9 10 -20 16
-11 6 -20 8 -20 6z"/>
<path d="M6110 7406 c0 -3 27 -24 60 -46 33 -22 60 -38 60 -36 0 3 -27 24 -60
46 -33 22 -60 38 -60 36z"/>
<path d="M3412 7323 c-1 -20 -10 -37 -24 -47 -12 -9 -18 -16 -12 -16 27 0 45
27 41 60 l-4 35 -1 -32z"/>
<path d="M6280 7286 c0 -2 8 -10 18 -17 15 -13 16 -12 3 4 -13 16 -21 21 -21
13z"/>
<path d="M6320 7256 c0 -2 8 -10 18 -17 15 -13 16 -12 3 4 -13 16 -21 21 -21
13z"/>
<path d="M3274 7214 c-18 -14 -18 -14 6 -3 31 14 36 19 24 19 -6 0 -19 -7 -30
-16z"/>
<path d="M6360 7227 c0 -3 21 -22 47 -43 26 -21 44 -33 40 -27 -9 14 -87 77
-87 70z"/>
<path d="M3184 7164 c-18 -14 -18 -15 4 -4 12 6 22 13 22 15 0 8 -5 6 -26 -11z"/>
<path d="M6475 7130 c10 -11 20 -20 23 -20 3 0 -3 9 -13 20 -10 11 -20 20 -23
20 -3 0 3 -9 13 -20z"/>
<path d="M3114 7124 c-18 -14 -18 -15 4 -4 12 6 22 13 22 15 0 8 -5 6 -26 -11z"/>
<path d="M6530 7085 c13 -14 26 -25 28 -25 3 0 -5 11 -18 25 -13 14 -26 25
-28 25 -3 0 5 -11 18 -25z"/>
<path d="M2987 7045 c-20 -14 -37 -28 -37 -31 0 -2 18 8 40 22 35 23 47 34 37
34 -1 0 -19 -11 -40 -25z"/>
<path d="M6580 7047 c0 -2 15 -16 33 -33 l32 -29 -29 33 c-28 30 -36 37 -36
29z"/>
<path d="M2889 6973 c-13 -16 -12 -17 4 -4 9 7 17 15 17 17 0 8 -8 3 -21 -13z"/>
<path d="M6660 6977 c0 -2 15 -16 33 -33 l32 -29 -29 33 c-28 30 -36 37 -36
29z"/>
<path d="M6810 6835 c35 -36 67 -65 69 -65 3 0 -24 29 -59 65 -35 36 -67 65
-69 65 -3 0 24 -29 59 -65z"/>
<path d="M2749 6863 c-13 -16 -12 -17 4 -4 9 7 17 15 17 17 0 8 -8 3 -21 -13z"/>
<path d="M2684 6808 l-19 -23 23 19 c21 18 27 26 19 26 -2 0 -12 -10 -23 -22z"/>
<path d="M2525 6658 l-110 -113 113 110 c104 102 117 115 109 115 -1 0 -52
-51 -112 -112z"/>
<path d="M7025 6620 c33 -33 62 -60 64 -60 3 0 -21 27 -54 60 -33 33 -62 60
-64 60 -3 0 21 -27 54 -60z"/>
<path d="M2384 6508 l-29 -33 33 29 c17 17 32 31 32 33 0 8 -8 1 -36 -29z"/>
<path d="M7125 6510 c10 -11 20 -20 23 -20 3 0 -3 9 -13 20 -10 11 -20 20 -23
20 -3 0 3 -9 13 -20z"/>
<path d="M2334 6448 l-19 -23 23 19 c21 18 27 26 19 26 -2 0 -12 -10 -23 -22z"/>
<path d="M7175 6450 c10 -11 20 -20 23 -20 3 0 -3 9 -13 20 -10 11 -20 20 -23
20 -3 0 3 -9 13 -20z"/>
<path d="M7236 6370 c46 -67 64 -87 38 -42 -10 19 -32 48 -47 65 -20 23 -18
17 9 -23z"/>
<path d="M2289 6393 c-13 -16 -12 -17 4 -4 9 7 17 15 17 17 0 8 -8 3 -21 -13z"/>
<path d="M2259 6353 c-13 -16 -12 -17 4 -4 9 7 17 15 17 17 0 8 -8 3 -21 -13z"/>
<path d="M2209 6283 c-13 -16 -12 -17 4 -4 16 13 21 21 13 21 -2 0 -10 -8 -17
-17z"/>
<path d="M2120 6150 c-6 -11 -8 -20 -6 -20 3 0 10 9 16 20 6 11 8 20 6 20 -3
0 -10 -9 -16 -20z"/>
<path d="M7243 6080 c0 -25 2 -35 4 -22 2 12 2 32 0 45 -2 12 -4 2 -4 -23z"/>
<path d="M7285 5980 c10 -11 20 -20 23 -20 3 0 -3 9 -13 20 -10 11 -20 20 -23
20 -3 0 3 -9 13 -20z"/>
<path d="M7345 5930 c10 -11 20 -20 23 -20 3 0 -3 9 -13 20 -10 11 -20 20 -23
20 -3 0 3 -9 13 -20z"/>
<path d="M7395 5890 c10 -11 20 -20 23 -20 3 0 -3 9 -13 20 -10 11 -20 20 -23
20 -3 0 3 -9 13 -20z"/>
<path d="M7430 5866 c0 -2 8 -10 18 -17 15 -13 16 -12 3 4 -13 16 -21 21 -21
13z"/>
<path d="M7500 5816 c0 -2 8 -10 18 -17 15 -13 16 -12 3 4 -13 16 -21 21 -21
13z"/>
<path d="M2249 5773 l-34 -38 38 34 c20 19 37 36 37 38 0 8 -8 0 -41 -34z"/>
<path d="M2189 5703 c-13 -16 -12 -17 4 -4 9 7 17 15 17 17 0 8 -8 3 -21 -13z"/>
<path d="M7705 5675 c11 -9 29 -21 40 -26 l20 -10 -20 16 c-11 9 -29 21 -40
26 l-20 10 20 -16z"/>
<path d="M2118 5613 c-18 -21 -31 -43 -25 -43 2 0 13 14 25 30 25 33 24 41 0
13z"/>
<path d="M7805 5613 c6 -6 28 -20 50 -32 22 -13 31 -15 20 -6 -22 18 -86 53
-70 38z"/>
<path d="M7900 5556 c0 -3 9 -10 20 -16 11 -6 20 -8 20 -6 0 3 -9 10 -20 16
-11 6 -20 8 -20 6z"/>
<path d="M7955 5523 c6 -5 33 -22 60 -37 28 -15 41 -20 30 -11 -22 19 -106 63
-90 48z"/>
<path d="M2003 5448 c-15 -20 -25 -38 -20 -38 3 0 12 11 21 25 17 26 16 35 -1
13z"/>
<path d="M8090 5446 c0 -3 14 -12 30 -21 17 -9 30 -13 30 -11 0 3 -13 12 -30
21 -16 9 -30 13 -30 11z"/>
<path d="M8180 5395 c0 -2 32 -21 70 -40 39 -19 70 -33 70 -30 0 2 -31 21 -70
40 -38 19 -70 33 -70 30z"/>
<path d="M8397 5279 c7 -7 15 -10 18 -7 3 3 -2 9 -12 12 -14 6 -15 5 -6 -5z"/>
<path d="M1855 5199 c-9 -17 -15 -33 -13 -35 3 -2 12 12 21 31 21 43 13 47 -8
4z"/>
<path d="M8540 5206 c0 -3 14 -12 30 -21 17 -9 30 -13 30 -11 0 3 -13 12 -30
21 -16 9 -30 13 -30 11z"/>
<path d="M8660 5137 c0 -3 19 -17 43 -32 24 -16 36 -21 28 -11 -14 16 -71 51
-71 43z"/>
<path d="M1815 5119 c-4 -6 -5 -12 -2 -15 2 -3 7 2 10 11 7 17 1 20 -8 4z"/>
<path d="M8787 5038 c28 -31 44 -59 48 -85 11 -64 13 -69 14 -34 1 47 -32 112
-71 141 -30 22 -29 20 9 -22z"/>
<path d="M1776 5035 c-9 -26 -7 -32 5 -12 6 10 9 21 6 23 -2 3 -7 -2 -11 -11z"/>
<path d="M1716 4895 c-9 -26 -7 -32 5 -12 6 10 9 21 6 23 -2 3 -7 -2 -11 -11z"/>
<path d="M2110 4875 c0 -14 2 -25 4 -25 2 0 6 11 8 25 3 14 1 25 -3 25 -5 0
-9 -11 -9 -25z"/>
<path d="M8808 4819 c-15 -33 -25 -59 -23 -59 8 0 56 101 53 109 -2 5 -15 -18
-30 -50z"/>
<path d="M1696 4845 c-3 -9 -6 -22 -5 -28 0 -7 5 -1 10 12 5 13 8 26 5 28 -2
2 -6 -3 -10 -12z"/>
<path d="M1676 4785 c-3 -9 -6 -22 -5 -28 0 -7 5 -1 10 12 5 13 8 26 5 28 -2
2 -6 -3 -10 -12z"/>
<path d="M2082 4720 c0 -14 2 -19 5 -12 2 6 2 18 0 25 -3 6 -5 1 -5 -13z"/>
<path d="M1646 4684 c-4 -14 -5 -28 -3 -31 3 -2 8 8 11 23 4 14 5 28 3 31 -3
2 -8 -8 -11 -23z"/>
<path d="M8730 4680 c-6 -11 -8 -20 -6 -20 3 0 10 9 16 20 6 11 8 20 6 20 -3
0 -10 -9 -16 -20z"/>
<path d="M2072 4665 c0 -16 2 -22 5 -12 2 9 2 23 0 30 -3 6 -5 -1 -5 -18z"/>
<path d="M8703 4638 c-15 -20 -25 -38 -20 -38 3 0 12 11 21 25 17 26 16 35 -1
13z"/>
<path d="M1631 4624 c0 -11 3 -14 6 -6 3 7 2 16 -1 19 -3 4 -6 -2 -5 -13z"/>
<path d="M2063 4585 c0 -22 2 -30 4 -17 2 12 2 30 0 40 -3 9 -5 -1 -4 -23z"/>
<path d="M1621 4584 c0 -11 3 -14 6 -6 3 7 2 16 -1 19 -3 4 -6 -2 -5 -13z"/>
<path d="M8650 4560 c-12 -16 -19 -30 -16 -30 2 0 14 14 26 30 12 17 19 30 16
30 -2 0 -14 -13 -26 -30z"/>
<path d="M1611 4534 c0 -11 3 -14 6 -6 3 7 2 16 -1 19 -3 4 -6 -2 -5 -13z"/>
<path d="M2181 4514 c0 -11 3 -14 6 -6 3 7 2 16 -1 19 -3 4 -6 -2 -5 -13z"/>
<path d="M8604 4498 l-19 -23 23 19 c12 11 22 21 22 23 0 8 -8 2 -26 -19z"/>
<path d="M2053 4470 c0 -25 2 -35 4 -22 2 12 2 32 0 45 -2 12 -4 2 -4 -23z"/>
<path d="M1601 4484 c0 -11 3 -14 6 -6 3 7 2 16 -1 19 -3 4 -6 -2 -5 -13z"/>
<path d="M8539 4418 c-24 -29 -36 -47 -26 -39 20 16 81 91 74 91 -2 0 -24 -24
-48 -52z"/>
<path d="M1586 4433 c-3 -10 -8 -56 -11 -103 -3 -47 -8 -95 -11 -107 -2 -13 0
-23 6 -23 5 0 10 24 10 53 0 28 5 83 10 121 10 66 8 98 -4 59z"/>
<path d="M2161 4424 c0 -11 3 -14 6 -6 3 7 2 16 -1 19 -3 4 -6 -2 -5 -13z"/>
<path d="M1690 4410 c-6 -11 -8 -20 -6 -20 3 0 10 9 16 20 6 11 8 20 6 20 -3
0 -10 -9 -16 -20z"/>
<path d="M2151 4374 c0 -11 3 -14 6 -6 3 7 2 16 -1 19 -3 4 -6 -2 -5 -13z"/>
<path d="M2044 4215 c0 -77 2 -107 3 -67 2 40 2 103 0 140 -2 37 -3 4 -3 -73z"/>
<path d="M2142 4320 c0 -14 2 -19 5 -12 2 6 2 18 0 25 -3 6 -5 1 -5 -13z"/>
<path d="M1615 4279 c-4 -6 -5 -12 -2 -15 2 -3 7 2 10 11 7 17 1 20 -8 4z"/>
<path d="M2132 4265 c0 -16 2 -22 5 -12 2 9 2 23 0 30 -3 6 -5 -1 -5 -18z"/>
<path d="M3240 4249 c0 -5 5 -7 10 -4 6 3 10 8 10 11 0 2 -4 4 -10 4 -5 0 -10
-5 -10 -11z"/>
<path d="M2122 4210 c0 -14 2 -19 5 -12 2 6 2 18 0 25 -3 6 -5 1 -5 -13z"/>
<path d="M2112 4145 c0 -16 2 -22 5 -12 2 9 2 23 0 30 -3 6 -5 -1 -5 -18z"/>
<path d="M3253 4085 c0 -38 2 -53 4 -32 2 20 2 52 0 70 -2 17 -4 1 -4 -38z"/>
<path d="M2793 4065 c0 -27 2 -38 4 -22 2 15 2 37 0 50 -2 12 -4 0 -4 -28z"/>
<path d="M2091 4012 c-12 -95 -14 -138 -6 -130 7 6 28 208 22 214 -2 3 -9 -35
-16 -84z"/>
<path d="M2051 3954 c-1 -56 3 -74 16 -85 13 -11 15 -11 9 -1 -5 8 -12 46 -16
85 l-7 72 -2 -71z"/>
<path d="M2802 3970 c0 -19 2 -27 5 -17 2 9 2 25 0 35 -3 9 -5 1 -5 -18z"/>
<path d="M3262 3959 c-3 -68 71 -430 85 -416 2 3 -5 38 -16 78 -20 71 -56 265
-64 339 l-4 35 -1 -36z"/>
<path d="M2812 3895 c0 -16 2 -22 5 -12 2 9 2 23 0 30 -3 6 -5 -1 -5 -18z"/>
<path d="M2827 3810 c3 -30 9 -62 14 -70 12 -21 10 -4 -6 65 l-14 60 6 -55z"/>
<path d="M2986 3825 c-9 -26 -7 -32 5 -12 6 10 9 21 6 23 -2 3 -7 -2 -11 -11z"/>
<path d="M2850 3713 c0 -22 30 -127 40 -137 5 -5 10 -8 10 -5 -1 12 -49 152
-50 142z"/>
<path d="M7782 3669 c-12 -21 -21 -39 -18 -39 7 0 49 71 44 75 -2 2 -14 -14
-26 -36z"/>
<path d="M2920 3620 c-7 -28 -10 -53 -7 -56 3 -3 10 18 16 47 15 68 7 75 -9 9z"/>
<path d="M7689 3533 c-13 -16 -12 -17 4 -4 16 13 21 21 13 21 -2 0 -10 -8 -17
-17z"/>
<path d="M7620 3453 l-55 -58 58 55 c53 50 62 60 54 60 -1 0 -27 -26 -57 -57z"/>
<path d="M3391 3410 c0 -8 4 -22 9 -30 12 -18 12 -2 0 25 -6 13 -9 15 -9 5z"/>
<path d="M7320 3400 c0 -5 5 -10 10 -10 6 0 10 5 10 10 0 6 -4 10 -10 10 -5 0
-10 -4 -10 -10z"/>
<path d="M7524 3368 l-19 -23 23 19 c12 11 22 21 22 23 0 8 -8 2 -26 -19z"/>
<path d="M7208 3363 c7 -3 16 -2 19 1 4 3 -2 6 -13 5 -11 0 -14 -3 -6 -6z"/>
<path d="M3411 3355 c0 -5 6 -21 14 -35 8 -14 14 -20 14 -15 0 6 -6 21 -14 35
-8 14 -14 21 -14 15z"/>
<path d="M7120 3350 c-34 -7 -34 -7 -5 -8 17 0 41 4 55 8 33 11 0 11 -50 0z"/>
<path d="M7301 3319 c-6 -18 -9 -34 -7 -36 2 -2 9 10 15 28 6 18 9 34 7 36 -2
2 -9 -10 -15 -28z"/>
<path d="M7414 3294 c-18 -14 -18 -15 4 -4 12 6 22 13 22 15 0 8 -5 6 -26 -11z"/>
<path d="M7360 3265 c-14 -8 -20 -14 -14 -15 5 0 19 7 30 15 24 18 16 19 -16
0z"/>
<path d="M3450 3261 c0 -6 4 -13 10 -16 6 -3 7 1 4 9 -7 18 -14 21 -14 7z"/>
<path d="M7276 3255 c-9 -26 -7 -32 5 -12 6 10 9 21 6 23 -2 3 -7 -2 -11 -11z"/>
<path d="M7300 3240 c-8 -5 -10 -10 -5 -10 6 0 17 5 25 10 8 5 11 10 5 10 -5
0 -17 -5 -25 -10z"/>
<path d="M3470 3221 c0 -6 4 -13 10 -16 6 -3 7 1 4 9 -7 18 -14 21 -14 7z"/>
<path d="M3660 2906 c0 -2 8 -10 18 -17 15 -13 16 -12 3 4 -13 16 -21 21 -21
13z"/>
<path d="M3690 2866 c0 -2 8 -10 18 -17 15 -13 16 -12 3 4 -13 16 -21 21 -21
13z"/>
<path d="M3720 2826 c0 -2 8 -10 18 -17 15 -13 16 -12 3 4 -13 16 -21 21 -21
13z"/>
<path d="M3760 2776 c0 -2 8 -10 18 -17 15 -13 16 -12 3 4 -13 16 -21 21 -21
13z"/>
<path d="M6425 2700 c10 -11 20 -20 23 -20 3 0 -3 9 -13 20 -10 11 -20 20 -23
20 -3 0 3 -9 13 -20z"/>
<path d="M3870 2656 c0 -2 8 -10 18 -17 15 -13 16 -12 3 4 -13 16 -21 21 -21
13z"/>
<path d="M4360 2640 c0 -5 5 -10 11 -10 5 0 7 5 4 10 -3 6 -8 10 -11 10 -2 0
-4 -4 -4 -10z"/>
<path d="M6485 2630 c10 -11 20 -20 23 -20 3 0 -3 9 -13 20 -10 11 -20 20 -23
20 -3 0 3 -9 13 -20z"/>
<path d="M6240 2613 c0 -4 5 -15 10 -23 8 -13 10 -13 10 2 0 9 -4 20 -10 23
-5 3 -10 3 -10 -2z"/>
<path d="M6555 2550 c16 -19 50 -57 75 -84 32 -34 39 -46 25 -43 -11 4 -33 9
-50 13 -16 4 -50 16 -74 26 -24 10 -46 17 -48 15 -2 -3 22 -14 54 -27 32 -12
67 -26 78 -31 82 -35 78 -5 -12 87 -43 44 -65 64 -48 44z"/>
<path d="M4025 2500 c27 -27 51 -50 54 -50 3 0 -17 23 -44 50 -27 28 -51 50
-54 50 -3 0 17 -22 44 -50z"/>
<path d="M6447 2489 c7 -7 15 -10 18 -7 3 3 -2 9 -12 12 -14 6 -15 5 -6 -5z"/>
<path d="M4600 2416 c0 -2 8 -10 18 -17 15 -13 16 -12 3 4 -13 16 -21 21 -21
13z"/>
<path d="M6322 2375 c0 -11 4 -31 8 -45 6 -20 8 -21 8 -5 0 11 -4 31 -8 45 -6
20 -8 21 -8 5z"/>
<path d="M4220 2336 c0 -2 8 -10 18 -17 15 -13 16 -12 3 4 -13 16 -21 21 -21
13z"/>
<path d="M4790 2235 c52 -52 97 -95 100 -95 2 0 -38 43 -90 95 -52 52 -97 95
-100 95 -2 0 38 -43 90 -95z"/>
<path d="M6342 2275 c0 -16 2 -22 5 -12 2 9 2 23 0 30 -3 6 -5 -1 -5 -18z"/>
<path d="M6355 1995 c0 -132 3 -220 7 -195 3 25 7 113 7 195 0 83 -4 170 -7
195 -4 25 -7 -63 -7 -195z"/>
<path d="M4520 2205 c0 -5 5 -17 10 -25 5 -8 10 -10 10 -5 0 6 -5 17 -10 25
-5 8 -10 11 -10 5z"/>
<path d="M4555 2130 c9 -16 18 -30 21 -30 2 0 -2 14 -11 30 -9 17 -18 30 -21
30 -2 0 2 -13 11 -30z"/>
<path d="M4524 2111 c11 -11 23 -21 28 -21 14 0 -1 19 -25 31 -22 12 -22 12
-3 -10z"/>
<path d="M6040 1940 c0 -5 5 -10 11 -10 5 0 7 5 4 10 -3 6 -8 10 -11 10 -2 0
-4 -4 -4 -10z"/>
<path d="M5180 1845 c30 -30 57 -55 59 -55 3 0 -19 25 -49 55 -30 30 -57 55
-59 55 -3 0 19 -25 49 -55z"/>
<path d="M6043 1780 c0 -25 2 -35 4 -22 2 12 2 32 0 45 -2 12 -4 2 -4 -23z"/>
<path d="M5280 1735 c13 -14 26 -25 28 -25 3 0 -5 11 -18 25 -13 14 -26 25
-28 25 -3 0 5 -11 18 -25z"/>
<path d="M6342 1720 c0 -14 2 -19 5 -12 2 6 2 18 0 25 -3 6 -5 1 -5 -13z"/>
<path d="M6032 1700 c0 -14 2 -19 5 -12 2 6 2 18 0 25 -3 6 -5 1 -5 -13z"/>
<path d="M5325 1680 c10 -11 20 -20 23 -20 3 0 -3 9 -13 20 -10 11 -20 20 -23
20 -3 0 3 -9 13 -20z"/>
<path d="M6185 1670 c3 -14 15 -56 26 -95 10 -38 19 -84 19 -102 0 -69 31 -86
50 -27 7 19 10 38 7 40 -3 3 -8 -8 -12 -25 -8 -39 -25 -50 -25 -18 0 33 -46
212 -60 234 -10 15 -10 14 -5 -7z"/>
<path d="M6332 1660 c0 -14 2 -19 5 -12 2 6 2 18 0 25 -3 6 -5 1 -5 -13z"/>
<path d="M6321 1604 c0 -11 3 -14 6 -6 3 7 2 16 -1 19 -3 4 -6 -2 -5 -13z"/>
<path d="M5505 1410 c9 -16 18 -30 21 -30 2 0 -2 14 -11 30 -9 17 -18 30 -21
30 -2 0 2 -13 11 -30z"/>
<path d="M5941 1369 c-6 -18 -9 -34 -7 -36 2 -2 9 10 15 28 6 18 9 34 7 36 -2
2 -9 -10 -15 -28z"/>
<path d="M5575 1265 c9 -35 46 -121 41 -94 -3 15 -15 46 -26 70 -11 24 -18 35
-15 24z"/>
<path d="M5621 1130 c0 -8 4 -24 9 -35 5 -13 9 -14 9 -5 0 8 -4 24 -9 35 -5
13 -9 14 -9 5z"/>
<path d="M5801 1063 c-10 -26 -10 -27 4 -9 8 11 15 23 15 28 0 15 -7 8 -19
-19z"/>
<path d="M5646 1040 c2 -19 7 -68 11 -107 7 -86 19 -92 57 -30 27 42 27 42 2
12 -14 -16 -26 -33 -26 -37 0 -5 -3 -8 -7 -8 -5 0 -9 21 -11 48 -2 26 -9 72
-17 102 -8 30 -12 39 -9 20z"/>
</g>
</svg>
