<?xml version="1.0" standalone="no"?>
<!DOCTYPE svg PUBLIC "-//W3C//DTD SVG 20010904//EN"
 "http://www.w3.org/TR/2001/REC-SVG-20010904/DTD/svg10.dtd">
<svg version="1.0" xmlns="http://www.w3.org/2000/svg"
 width="1024.000000pt" height="1536.000000pt" viewBox="0 0 1024.000000 1536.000000"
 preserveAspectRatio="xMidYMid meet">

<g transform="translate(0.000000,1536.000000) scale(0.100000,-0.100000)"
fill="#000000" stroke="none">
<path d="M0 7680 l0 -7680 5120 0 5120 0 0 7680 0 7680 -5120 0 -5120 0 0
-7680z m5485 4658 c-31 -184 -45 -651 -26 -858 36 -398 114 -696 256 -985 40
-82 80 -159 88 -169 10 -13 0 54 -30 213 -25 128 -43 234 -41 237 5 4 302
-127 418 -185 255 -127 626 -407 885 -666 241 -240 425 -501 425 -603 0 -18
-21 -85 -46 -150 -74 -186 -77 -159 25 -271 136 -149 718 -707 971 -931 260
-230 270 -240 270 -270 0 -40 -95 -177 -148 -214 -41 -29 -44 -30 -90 -18 -26
7 -92 38 -147 69 -55 31 -117 66 -137 77 -41 23 -71 15 -76 -20 -1 -10 27 -79
63 -153 40 -83 63 -141 60 -152 -11 -35 -119 -119 -210 -164 -146 -72 -274
-92 -384 -59 -30 8 -149 68 -265 131 -395 217 -640 327 -883 397 -156 45 -270
60 -413 53 -580 -25 -1052 -543 -1096 -1202 -23 -361 152 -813 459 -1182 43
-51 75 -93 72 -93 -16 0 -260 161 -367 241 -499 379 -833 960 -898 1561 -28
266 8 565 93 776 13 34 22 62 18 62 -20 0 -191 -143 -273 -228 -204 -213 -356
-510 -419 -816 -19 -96 -48 -330 -50 -411 -1 -38 -5 -31 -72 106 -135 273
-203 531 -214 809 -15 385 110 782 348 1105 152 205 477 510 713 667 118 79
117 77 49 66 -262 -40 -533 -149 -778 -313 -334 -223 -666 -586 -901 -982
-298 -503 -480 -1148 -485 -1718 -1 -71 -4 -157 -8 -190 l-6 -59 -57 119
c-139 291 -217 553 -248 830 -15 133 -12 424 5 545 100 704 534 1418 1228
2018 86 75 153 138 148 140 -15 5 -204 -37 -328 -72 -303 -87 -557 -200 -757
-335 -66 -44 -122 -79 -124 -77 -9 10 65 137 152 261 161 227 495 576 735 767
227 182 576 417 727 491 33 16 47 31 65 71 38 81 230 396 310 508 294 411 691
802 1112 1093 96 66 264 165 280 165 4 0 5 -15 2 -32z m1654 -424 c-11 -116
-23 -190 -50 -299 -26 -104 -122 -416 -161 -525 -40 -110 -218 -574 -223 -578
-1 -2 -41 25 -88 60 -151 111 -459 283 -685 382 -34 15 -60 31 -57 36 3 5 234
200 513 433 279 233 561 470 627 526 139 118 139 119 124 -35z m-4270 -4954
c90 -446 321 -870 671 -1234 148 -154 328 -300 705 -571 446 -321 529 -387
705 -564 212 -213 311 -364 384 -584 89 -266 86 -472 -11 -772 l-36 -110 -22
100 c-71 313 -236 584 -505 830 -192 176 -355 281 -828 534 -466 249 -593 333
-767 506 -257 256 -407 551 -476 940 -31 169 -33 482 -5 640 32 183 88 384
142 515 l19 45 7 -110 c3 -60 11 -135 17 -165z m3185 208 c-50 -94 -68 -187
-61 -327 6 -139 35 -249 101 -379 73 -145 123 -213 392 -527 220 -256 359
-532 393 -779 13 -89 14 -206 4 -206 -5 1 -26 40 -48 87 -53 115 -137 241
-221 332 -65 70 -163 156 -170 148 -2 -1 10 -44 26 -93 59 -184 74 -281 74
-494 1 -154 -3 -213 -17 -280 -80 -364 -247 -645 -602 -1009 -77 -79 -153
-153 -170 -164 l-29 -21 32 54 c146 247 272 602 329 925 24 143 25 486 0 607
-41 206 -89 336 -250 678 -172 369 -221 507 -247 700 -40 293 83 574 315 722
61 39 157 87 176 88 4 0 -8 -28 -27 -62z"/>
<path d="M5086 11570 c-447 -494 -653 -897 -731 -1431 -22 -152 -24 -148 53
-82 250 216 608 437 811 503 39 12 71 25 71 29 0 4 -15 72 -34 152 -58 250
-71 370 -71 672 0 147 0 267 0 266 0 0 -44 -49 -99 -109z"/>
<path d="M5647 9496 c21 -24 96 -108 167 -187 71 -79 176 -201 233 -271 93
-114 109 -129 156 -146 64 -24 182 -57 262 -72 201 -40 418 -146 713 -346 68
-46 125 -84 128 -84 8 0 -85 108 -185 215 -46 50 -135 159 -199 244 -209 278
-264 326 -454 402 -103 41 -838 289 -856 289 -2 0 14 -20 35 -44z"/>
</g>
</svg>
