<?xml version="1.0" standalone="no"?>
<!DOCTYPE svg PUBLIC "-//W3C//DTD SVG 20010904//EN"
 "http://www.w3.org/TR/2001/REC-SVG-20010904/DTD/svg10.dtd">
<svg version="1.0" xmlns="http://www.w3.org/2000/svg"
 width="1024.000000pt" height="1024.000000pt" viewBox="0 0 1024.000000 1024.000000"
 preserveAspectRatio="xMidYMid meet">

<g transform="translate(0.000000,1024.000000) scale(0.100000,-0.100000)"
fill="#000000" stroke="none">
<path d="M0 5120 l0 -5120 5120 0 5120 0 0 5120 0 5120 -5120 0 -5120 0 0
-5120z m4799 3827 c129 -276 304 -649 390 -828 l155 -327 106 -42 c492 -197
966 -526 1453 -1008 173 -171 283 -296 354 -403 l46 -69 -31 -81 c-37 -94 -40
-129 -11 -175 27 -44 149 -142 329 -263 250 -169 423 -270 850 -496 342 -181
414 -246 396 -357 -19 -115 -268 -476 -433 -627 -70 -65 -206 -141 -251 -141
-22 0 -11 15 90 118 108 110 218 256 218 289 0 7 35 51 79 97 82 87 141 187
141 238 0 19 -13 43 -41 73 -33 36 -82 65 -233 142 -395 199 -775 432 -1097
674 -257 193 -288 238 -299 435 -7 117 -10 128 -41 180 -44 72 -161 206 -281
320 -360 343 -931 685 -1432 857 l-119 40 -77 161 c-42 89 -127 276 -188 416
-61 140 -161 370 -222 510 -62 140 -124 283 -138 317 -15 35 -30 63 -34 63 -3
0 -47 -48 -96 -107 -461 -554 -693 -1088 -743 -1712 l-12 -148 -81 -33 c-131
-53 -381 -183 -521 -271 -237 -148 -499 -356 -784 -619 -68 -63 -147 -135
-175 -160 l-50 -45 24 40 c186 309 297 454 504 661 228 228 472 407 743 547
l130 67 7 82 c62 722 482 1525 1061 2027 39 33 72 60 75 61 3 0 110 -226 239
-503z m2020 43 c56 -420 35 -898 -65 -1445 -19 -104 -38 -202 -42 -217 l-7
-27 -98 81 c-65 55 -97 87 -94 97 3 9 16 54 30 101 34 115 73 292 92 420 20
136 40 499 31 581 l-7 64 -322 -323 c-177 -178 -366 -364 -420 -414 l-97 -90
-83 35 c-45 19 -106 43 -134 53 -29 10 -53 21 -52 24 0 3 86 79 191 170 544
471 663 582 908 854 161 178 150 175 169 36z m-2233 -885 c37 -99 104 -288
149 -420 46 -132 92 -265 103 -296 l20 -57 -96 -48 c-54 -26 -149 -69 -212
-95 l-115 -48 -53 52 c-142 138 -232 344 -232 530 l0 79 83 -78 c46 -44 121
-100 165 -126 45 -26 82 -46 82 -44 0 2 -25 55 -54 117 -88 182 -109 267 -110
429 0 126 2 141 30 222 17 47 43 107 59 134 l28 47 44 -109 c24 -60 73 -190
109 -289z m1194 -1332 c500 -150 778 -410 905 -848 14 -48 24 -90 21 -92 -5
-5 -122 39 -181 70 -28 14 -83 54 -123 90 -128 115 -251 184 -408 229 -67 19
-104 22 -239 23 -88 0 -173 -4 -189 -8 l-28 -8 57 -34 c91 -55 152 -112 166
-153 6 -20 27 -68 46 -107 104 -209 243 -295 458 -282 52 3 95 3 95 1 0 -2
-28 -25 -62 -50 -67 -49 -174 -111 -273 -157 l-60 -28 95 5 c207 13 449 99
644 230 l69 46 86 -37 c372 -158 955 -463 1086 -568 l27 -21 -49 -30 c-66 -41
-87 -86 -80 -171 7 -91 43 -158 138 -252 43 -44 79 -85 79 -91 0 -6 -11 -32
-24 -58 -79 -155 -249 -242 -477 -242 -162 0 -238 34 -467 208 -284 216 -536
362 -696 402 -207 52 -402 3 -559 -141 -61 -55 -155 -164 -191 -221 l-17 -26
68 -22 c124 -41 387 -148 534 -218 168 -80 348 -180 597 -331 193 -117 296
-161 425 -181 184 -30 416 21 560 122 16 11 31 17 34 14 11 -11 -50 -146 -100
-223 -96 -146 -226 -263 -382 -342 -43 -22 -80 -39 -82 -38 -1 2 11 41 27 87
17 45 29 84 27 86 -2 2 -30 -5 -61 -16 -104 -35 -201 -50 -333 -50 l-128 0 40
33 c22 17 53 44 69 58 l30 26 -98 73 c-316 234 -650 389 -953 440 -141 24
-347 26 -460 5 -217 -41 -409 -143 -575 -306 -59 -58 -59 -58 -53 -26 46 217
192 432 380 561 l40 28 -65 -7 c-93 -10 -272 -57 -381 -100 -112 -44 -197 -90
-301 -161 -43 -29 -78 -49 -78 -44 0 6 14 54 31 107 70 221 184 408 349 576
59 59 104 107 102 107 -31 0 -240 -37 -313 -56 -201 -50 -451 -157 -603 -258
-38 -25 -71 -45 -72 -43 -6 5 42 177 69 247 89 236 269 489 432 605 120 86
261 140 398 152 37 3 67 9 67 13 0 15 -325 101 -435 115 -27 3 -63 9 -78 12
l-29 5 37 25 c59 40 231 119 333 153 199 67 357 91 587 91 l169 0 -59 36 c-78
47 -262 134 -345 163 -36 13 -69 27 -73 31 -12 9 173 130 296 194 53 28 97 52
97 55 -1 12 -227 169 -344 239 l-129 76 64 12 c179 33 561 35 769 3 36 -5 69
-10 74 -10 5 0 -37 47 -92 104 -55 58 -106 114 -112 126 -11 20 -10 21 27 14
21 -3 90 -22 153 -41z m-2376 -245 c-10 -13 -80 -86 -154 -163 -394 -407 -598
-682 -784 -1053 -180 -360 -317 -834 -373 -1294 -23 -189 -32 -164 -40 113 -8
274 19 576 66 737 6 19 6 32 0 32 -15 0 -210 -200 -282 -289 -87 -108 -165
-226 -216 -326 l-41 -79 0 49 c0 71 26 232 56 355 86 348 294 757 544 1070
283 354 682 646 1130 826 58 23 107 43 109 43 2 1 -4 -9 -15 -21z m1091 -469
c-16 -6 -66 -22 -110 -36 -44 -14 -140 -54 -213 -89 -538 -256 -947 -730
-1141 -1319 -27 -82 -48 -152 -46 -154 2 -2 16 12 31 30 105 130 360 356 543
478 88 59 261 161 274 161 4 0 -5 -19 -20 -42 -69 -110 -140 -305 -173 -473
-82 -428 20 -909 274 -1293 65 -98 226 -305 232 -299 2 2 -3 37 -12 78 -20 99
-30 402 -15 499 18 120 43 230 52 230 5 0 9 -6 9 -14 0 -30 103 -257 166 -367
193 -337 413 -609 813 -1010 234 -233 510 -493 518 -486 10 11 -62 226 -155
464 -138 351 -177 490 -201 705 -14 122 -14 218 -1 218 6 0 10 -6 10 -14 0
-30 113 -240 193 -359 101 -150 181 -250 297 -371 81 -85 241 -229 247 -222 2
1 -17 63 -41 137 -62 189 -77 264 -83 424 -6 163 9 246 59 335 35 62 87 130
100 130 4 0 8 -26 8 -57 1 -147 69 -319 193 -488 61 -83 260 -320 326 -388 46
-48 46 -48 16 -41 -98 23 -265 97 -354 158 -36 25 -51 31 -46 19 4 -10 20 -54
36 -98 108 -309 104 -769 -11 -1060 -12 -29 -13 -26 -32 65 -24 117 -84 271
-144 368 -25 39 -46 72 -47 72 -1 0 -3 -42 -5 -93 -6 -223 -74 -468 -202 -722
-50 -99 -150 -265 -160 -265 -3 0 -6 23 -8 52 -5 74 -55 259 -97 358 -72 169
-160 307 -294 463 -141 164 -912 917 -919 897 -7 -20 154 -443 198 -517 11
-18 17 -33 15 -33 -8 0 -195 129 -290 200 -264 198 -507 451 -677 707 -212
318 -341 741 -350 1150 -2 62 -5 113 -6 113 -7 0 -42 -46 -102 -132 -102 -147
-160 -277 -239 -538 -7 -22 -12 -14 -34 56 -100 313 -114 770 -36 1131 82 379
303 771 543 962 198 158 490 274 796 316 115 16 361 19 315 4z m1582 -63 c75
-41 234 -153 248 -175 8 -14 -7 -20 -58 -27 -108 -15 -203 28 -250 114 -27 50
-46 132 -31 132 5 0 46 -20 91 -44z m2130 -1322 c13 -8 23 -20 23 -27 0 -14
-48 -64 -53 -56 -23 34 -77 120 -77 123 0 8 82 -23 107 -40z m-1796 -120 c45
-8 99 -24 120 -34 20 -11 74 -60 119 -109 69 -76 85 -89 100 -81 26 14 73 12
92 -2 19 -16 135 -315 125 -324 -1 -1 -76 41 -167 93 -182 105 -418 226 -579
297 -58 26 -107 49 -110 52 -4 3 44 4 105 2 l111 -3 -48 46 c-65 60 -65 79 0
79 27 0 86 -7 132 -16z m921 -455 c84 -17 81 -13 54 -66 -29 -58 -78 -107
-128 -127 -38 -16 -90 -21 -101 -10 -16 17 89 214 114 214 4 0 32 -5 61 -11z
m417 -65 c-30 -36 -195 -142 -205 -131 -3 3 16 67 41 135 3 8 31 12 91 12 78
0 85 -2 73 -16z"/>
</g>
</svg>
